<svg xmlns="http://www.w3.org/2000/svg" viewBox="0 0 1475.1 821.96"><defs><style>.cls-1{isolation:isolate;}.cls-2,.cls-3{fill:#6ecfff;}.cls-3,.cls-5,.cls-7,.cls-9{mix-blend-mode:multiply;}.cls-4,.cls-5{fill:#caf0ff;}.cls-6,.cls-7{fill:#aeecff;}.cls-8,.cls-9{fill:#ffd5c7;}</style></defs><title>Asset 1</title><g class="cls-1"><g id="Layer_2" data-name="Layer 2"><g id="Layer_1-2" data-name="Layer 1"><path class="cls-2" d="M8.15,724.56C6.38,758.89,57.68,795.32,127.69,822h333.2c-4.18-32.09-45.38-197.3-89.92-205.18-19.78-3.8-29.29,55.89-29.68,55.66-2.87,5.16-5.45,7.78-5.74,5.88,0,0,0,0-.3-1.75-14.94-93.84-74.42-173.68-115.53-173.49-22.66-.11-34.24,47.64-34.47,47.48-1.53,5.81-8.24,7.72-14.88,4.38.73-3-147.27-66.41-167.86-35.6-17,27.09,58.1,152.91,55.17,153.53,3,5.89.93,12.31-4.52,14.33C53,687,9.27,704.14,8.15,724.56ZM470.84,822h86.48c-12-33.18-27.32-55.14-42.51-59.47C497.12,757.17,478.23,802.89,470.84,822Z"/><path class="cls-3" d="M10,738a37.14,37.14,0,0,1-1.88-11.3c36.64,9.59,125.72,25.71,196.64-19.53C106,633.59,38.13,553.48,37.18,552.35a5.17,5.17,0,0,1,7.92-6.65c1.11,1.32,94.33,111.41,221.19,191.24,28.26-76.77-31.34-189.84-55.63-231a17.4,17.4,0,0,1,9.06-2.71c.5,0,1,.06,1.51.08,26.35,44.68,85.31,158.8,54,239.15a645.47,645.47,0,0,0,71.32,37.91,5.17,5.17,0,1,1-4.23,9.43,656.29,656.29,0,0,1-75.52-40.37h0c-.06,0-.09-.07-.14-.09-18.39-11.35-36.08-23.37-53-35.63C174,740.31,129.3,748.26,90.16,748.26A332,332,0,0,1,10,738Z"/><path class="cls-4" d="M327.66,822c-30.4-41.55-45.63-73.75-34.43-91.74,10.8-17.65,79-.06,79,.67,5.6,1.66,6.92-.88,2.9-5.64,1.19-3.18-106.67-101.4-106.45-141.25.56-17.65,60.27-9.09,60.36-8.56,5.69-.71,9.17-1.94,7.71-2.76l-1.33-.78c-69.8-41.5-118.93-91-109.91-126.33,5.12-19.79,51.36-28,51.48-27.76,5.75-.89,9.06-6.79,7.26-13.15,3,0-45.88-138.18-23.84-161.39,26.26-26.15,158.86,65.19,157.56,68,5.85,4.59,12.8,4,15.45-1.36.2.2,21-44.32,43.15-39.76C516.91,278,559.49,368,555.66,463c-.06,1.78-.05,1.77-.06,1.78-.1,1.91,3-.15,6.78-4.63.34.3,21.43-56.34,40.07-48.73,46.73,18.3,51.28,225.77,46.68,224.17,0,7.66,2.71,9.46,6,4,.48.57,39-68,59.59-57C747,599.15,761.49,706.94,733.16,822Z"/><path class="cls-5" d="M225.51,445.74c.13-.48.39-.94.56-1.42,120.09,46.23,193.81,22.83,213.24,14.75C381,363.51,320.74,307.46,319.59,306.41a5.17,5.17,0,0,1,7-7.64c1.17,1.07,63.8,59.24,123.57,158.28a5.19,5.19,0,0,1,1.43,1.6,5,5,0,0,1,.56,1.73q5.82,9.74,11.57,20c43.71-69,22.61-169.93,11.51-210.19.45.05.9,0,1.36.1a38,38,0,0,1,10.58,3.93c12.21,46.33,30.25,146.61-17.81,216.37a766.74,766.74,0,0,1,57.59,135,5,5,0,0,1,.59,1.09,4.77,4.77,0,0,1,.11,1.17q5.68,18.27,10.49,37.32c76.12-76.28,69.18-193.62,59.08-254.13a9.35,9.35,0,0,1,5.26.55,23.11,23.11,0,0,1,5.8,3.41c10,65.15,14.36,184.86-67.31,261.89a645.33,645.33,0,0,1,16.5,123.6,5.15,5.15,0,0,1-5,5.34h-.19a5.16,5.16,0,0,1-5.16-5,646.1,646.1,0,0,0-28.17-166.23,260.09,260.09,0,0,1-71.7,10.09c-81.45,0-147.76-37.41-178.4-58.27-.06-.75-.17-1.51-.17-2.22.1-3,2-5.3,5-7,37,25.4,132.07,78.81,242.16,47.45-19-59.31-44.66-112-71.1-156.59-10.61,4.76-38.23,14.82-82.13,14.82-35.56,0-81.79-6.67-138.12-28.12A35.41,35.41,0,0,1,225.51,445.74Z"/><path class="cls-6" d="M503.08,822c-3.28-8.34-6.44-16.76-9.39-25.25-43.81-129.4-72.49-230.78-38.48-255,19.61-14.18,85.27,35.54,85,36.33,5.31,4.33,7.87,2.18,5.68-4.78,2.73-2.9-69.43-157.58-51.24-200.5,8.56-18.79,69.17,17.38,69,18,6.46,1.81,10.77,2,9.57.49l-1.08-1.43c-56.66-76.29-87.37-151.84-61.69-186,14.45-19.06,68.07-7.07,68.1-6.76,6.6,1.63,12.84-3.24,13.77-10.92,3.25,1.31,12.78-169.88,47-185,40.15-16.39,142.12,142,139.46,144.43,4.25,7.59,12,10.12,17.3,5.5.11.3,42.61-38.41,64.51-23.46,40,26.73,45.38,143.1-1.57,243.88-.87,1.88-.86,1.88-.87,1.88-1,2,3.27,1.18,9.42-1.93.22.48,48.54-51.18,65.22-34.54,42.21,40.84-46.45,266.88-50.68,263.08-3.43,8.28-1.33,11.45,4.71,7,.25.83,72.76-55.78,90-34.64,25.92,30.81-2.41,143-75.79,249.55Z"/><path class="cls-7" d="M734.31,612.19c-.87,19.49-2.21,38.93-4.11,58.22a5.17,5.17,0,0,1-5.14,4.66l-.51,0a5.17,5.17,0,0,1-4.64-5.65,1178.61,1178.61,0,0,0,5.24-124.81C614.93,534.24,535.53,445,492.37,381.54a35.63,35.63,0,0,1,2.25-8.57,8.15,8.15,0,0,1,2.35-3c40.84,61.86,118.91,153.43,228,164.24-1-62.88-6.21-124.85-13.46-182.49-111.18-2.53-176.71-92.17-204.62-142a40.13,40.13,0,0,1,3.53-5.69,18.41,18.41,0,0,1,3.27-3.31C539.07,247.41,602,338,710.23,341.33,688.28,174.22,649.92,46.19,649.3,44.15a5.17,5.17,0,0,1,9.89-3c.63,2.08,39.91,133.14,61.87,303.52a5.08,5.08,0,0,1,.43,2,4.63,4.63,0,0,1-.1.52q2,15.53,3.75,31.45c102.52-60,121.39-204.59,124.85-254.23a20.48,20.48,0,0,1,10.13,3.08C856,181.65,834.81,329.86,726.35,389.86c5,48,8.42,98.23,9.06,149a5,5,0,0,1,.17,1.35,5.29,5.29,0,0,1-.15.55q.34,29.68-.65,59.47c123.09-65.9,172.1-195,190.42-266.43a11.35,11.35,0,0,1,7.64,3.27c.59.57,1.14,1.19,1.68,1.82C914.94,413.7,863.18,546.18,734.31,612.19Z"/><path class="cls-8" d="M1462.25,479.94c-48-44.95-166.12-39.64-271,65.63,1.41-14.53,3-29.12,4.8-43.69,12.23-97.75,30.12-254.65-35-265s-133.14,103.84-160.51,246c-2.59-3.12-5.16-6.18-7.66-9.09C893,357.88,788.1,347.3,734,391c-49.2,39.83,4.88,126.46,61.39,204.76-112-20.94-231.05,27.6-248,87.56-18,63.49,113.41,96.82,206.86,128,3.49,1.17,7.7,2.73,12.48,4.58h494.18c34.62-41.56,65.91-89,90.14-119.65C1412.15,619,1510.4,525.06,1462.25,479.94Z"/><path class="cls-9" d="M980.52,638.13c-1.86-7-25.46-99.36,8.8-168.56-2.38-2.71-4.77-5.38-7.15-8-28.32,53.42-22.7,119.3-16.59,154.61q-20.91-30.06-40.45-55a5,5,0,0,0-1.23-1.58c-20-25.57-38.59-47.2-55.14-65.16-.93-9.13-5.91-67.69,13.92-109q-4.61-2.16-9.16-4.05c-16.59,34.58-16.87,79-15.69,101.34C819,442.18,794,423.76,793.42,423.34a5,5,0,0,0-5.84,8.12c.81.58,49.26,36.26,116.29,119-27.46-10.31-81.44-24.2-144.07-6.87,1.87,2.93,3.79,5.87,5.72,8.82,77.5-20.07,142,9.91,151.55,14.68,40.14,51.49,85.86,119,131.6,205C998.54,741,937.1,720.75,876.52,707.69a5.71,5.71,0,0,0-.55-.33c-.72-.25-68.56-25.45-96.8-114.32q-5.43-.7-10.87-1.19c17.61,59.5,51.69,92.58,76.13,109.53-16.92-3-33.58-5.49-49.74-7.55a4.9,4.9,0,0,0-2.51-.32c-32.4-4.05-62.63-6.37-88.52-7.68-4.44-1.89-45.11-20.63-60.71-79.37q-4.8,1.63-9.43,3.41c11,40.6,33.38,63.44,49.21,75.08-38.51-1.29-63.28-.31-64.12-.27a5,5,0,0,0-4.78,5.21,5,5,0,0,0,5.21,4.78c1.42-.06,71.93-2.81,161.22,7.44-17.05,14.66-51.12,49.29-60,97.95l9.62,3.1c9.51-55.78,54.87-92.41,64.15-99.38,88.49,11.29,192.27,35.62,265.21,87.4a5,5,0,0,0,7.34-6.37A1531.51,1531.51,0,0,0,980.52,638.13Zm352-96.37c33.87-16.94,55.9-24.9,56.5-25.11a5,5,0,1,0-3.32-9.43c-.75.27-34.48,12.42-83.12,38.94h0a4.9,4.9,0,0,0-2.09,1.15,849.28,849.28,0,0,0-82.3,51.53c14-23.93,30.55-61,28.61-99.64q-5,3.35-10,7c-.53,49.87-32.51,97-41.89,109.79a768.94,768.94,0,0,0-67,57.34l-.21.2c-12.73,12.28-25.33,25.3-37.62,39.12a636.68,636.68,0,0,1-9-75.1c7.43-16.84,39.94-81.63,112.46-115.18.42-3.82.89-7.64,1.34-11.46-63.52,27.35-99,77.72-114.74,106.23-1.76-56.47,3.5-109.49,11.51-155.49,5.41-9.29,41.38-66.21,115.53-78.35q.22-5,.36-9.94c-56.92,9-93.4,43.23-111.57,65.31C1113.2,354,1137.91,298.07,1138.39,297a5,5,0,1,0-9.12-4.11c-.36.79-14,31.58-28.08,81.88-4.12-20.4-14.66-46.81-41.09-61.64q-2.47,4.25-4.88,8.68c41.44,23.32,38.58,80.07,38.54,80.67a4.13,4.13,0,0,0,.06.41c-4.15,16.94-8.12,35.47-11.62,55.29a4.85,4.85,0,0,0-.45,2.63c-3.25,18.78-6,38.69-8.1,59.51-8.5-30.36-26.15-72.79-60.53-91.51-.92,3.3-1.81,6.64-2.69,10,48.88,29.1,60.32,115.58,60.44,116.56,0,.09.06.16.08.24a723.13,723.13,0,0,0,.08,80.14c-.62,1.46-1,2.34-1,2.43a5,5,0,0,0,1.48,5.51,638.45,638.45,0,0,0,10.74,80.93,5,5,0,0,0,8.69,2.29c14-16.23,28.46-31.33,43.11-45.49,11.81-3.84,120.6-36.4,203.84,31.91q3.06-4.12,6-8c-69.79-57-156.27-46.81-194.54-38.31,15.65-14.28,31.41-27.44,47-39.52a5,5,0,0,0,3.8-1.84c.25-.31,1-1.26,2.13-2.74a833.68,833.68,0,0,1,103.8-67.29c10.21-2.2,90.9-17.91,141.27,20.57q2.87-4.26,5.51-8.43C1415.87,540,1364.63,538.93,1332.55,541.76Z"/></g></g></g></svg>